<svg xmlns="http://www.w3.org/2000/svg" viewBox="0 0 1175.6 531.74"><defs><style>.cls-1{fill:#9d9d9c;}.cls-2{fill:#010101;}.cls-3{fill:#878787;}.cls-4{fill:#999;}.cls-5{fill:#b2b2b2;}</style></defs><g id="IMPERMEABILIZANTE"><rect class="cls-1" x="837.27" y="14.73" width="127.11" height="61.41"/><rect class="cls-1" x="964.19" y="14.73" width="127.11" height="61.41"/><rect class="cls-1" x="837.27" y="76.14" width="127.11" height="64.22"/><rect class="cls-1" x="837.27" y="140.36" width="127.11" height="64.22"/><rect class="cls-1" x="837.27" y="204.57" width="127.11" height="64.22"/><rect class="cls-1" x="964.19" y="76.14" width="127.11" height="64.22"/><rect class="cls-1" x="964.19" y="140.36" width="127.11" height="64.22"/><rect class="cls-1" x="964.19" y="204.57" width="127.11" height="64.22"/><rect class="cls-1" x="924.03" y="268.88" width="40.17" height="102.9"/><rect class="cls-1" x="964.38" y="268.88" width="44.05" height="102.9"/><polygon class="cls-2" points="823.2 0 822.96 283.1 924.18 283.19 924.18 280 924.19 268.64 837.52 268.57 837.74 14.56 1091.74 14.79 1091.52 268.79 1008.15 268.71 1008.13 283.27 1008.54 283.27 1106.06 283.35 1106.31 0.25 823.2 0"/><rect class="cls-3" x="823.2" width="283.1" height="14.81"/><polygon class="cls-3" points="837.27 268.79 837.27 14.73 822.96 14.73 822.96 283.1 837.27 283.1 837.27 283.19 924.18 283.19 924.18 268.79 837.27 268.79"/><rect class="cls-3" x="1091.32" y="14.73" width="14.31" height="268.37"/><rect class="cls-3" x="1008.14" y="268.85" width="83.16" height="14.26"/><polygon class="cls-2" points="1105.63 247.97 1105.63 262.54 1110.6 262.53 1161.04 262.56 1160.4 517.24 757.92 516.63 758.55 262.3 823 262.12 822.96 247.76 817.61 247.79 744.01 247.74 743.82 531.46 1175.41 531.74 1175.6 248.02 1105.63 247.97"/><polygon class="cls-4" points="215.94 507.87 215.94 507.56 143.96 507.56 71.98 507.56 0 507.56 0 506.75 0 508.34 359.56 508.89 359.56 507.87 287.92 507.87 215.94 507.87"/><polygon class="cls-4" points="359.9 281.43 359.9 281.43 359.9 283.02 359.9 281.43"/><polygon class="cls-5" points="1160.95 388.36 1161.15 388.36 1161.15 263.94 1160.95 388.36"/><polygon class="cls-5" points="1105.98 282.64 1080.57 282.69 1080.57 388.36 1160.95 388.36 1161.15 263.94 1161.15 262.17 1105.98 262.08 1105.98 282.64"/><polygon class="cls-5" points="1008.89 282.81 1008.78 371.31 1000 371.31 1000 388.02 1000 388.36 1080.57 388.36 1080.57 282.69 1008.89 282.81"/><polygon class="cls-5" points="1000 388.02 1000 371.31 924.38 371.31 924.53 282.73 919.42 282.73 919.42 388.02 1000 388.02"/><polygon class="cls-5" points="919.42 282.73 838.85 282.66 838.85 388.02 919.42 388.02 919.42 282.73"/><polygon class="cls-5" points="823.31 282.64 823.3 263.52 823.36 261.66 815.49 261.63 758.66 261.55 758.47 388.02 838.85 388.02 838.85 282.66 823.31 282.64"/><polygon class="cls-5" points="1160.76 515.64 1161.15 515.64 1161.15 388.36 1160.95 388.36 1160.76 515.64"/><polygon class="cls-5" points="1080.57 388.37 1080.57 516.55 1160.76 516.55 1160.95 388.37 1080.57 388.37"/><polygon class="cls-5" points="1000 516.21 1000 516.55 1080.57 516.55 1080.57 388.37 1000 388.37 1000 516.21"/><polygon class="cls-5" points="1000 388.02 919.42 388.02 919.42 516.21 1000 516.21 1000 388.37 1000 388.02"/><rect class="cls-5" x="838.85" y="388.02" width="80.57" height="128.19"/><polygon class="cls-5" points="758.27 388.02 758.27 514.39 758.47 388.02 758.27 388.02"/><polygon class="cls-5" points="838.85 516.21 838.85 388.02 758.47 388.02 758.27 515.29 758.27 516.21 838.85 516.21"/><polygon class="cls-3" points="1175.59 262.01 1175.59 247.97 1105.63 247.97 1105.63 262.01 1160.95 262.01 1160.95 516.26 1175.6 516.26 1175.6 262.01 1175.59 262.01"/><rect class="cls-3" x="743.83" y="516.26" width="431.58" height="15.48"/><polygon class="cls-3" points="758.27 247.75 743.88 247.75 743.88 516.21 758.27 516.21 758.27 261.66 823.36 261.66 823.36 247.75 758.27 247.75"/></g></svg>