<svg xmlns="http://www.w3.org/2000/svg" viewBox="0 0 567.56 504"><defs><style>.cls-1{fill:#e52421;}.cls-1,.cls-2,.cls-3{stroke:#fff;stroke-miterlimit:10;}.cls-2{fill:#f39200;opacity:0.45;}.cls-3{fill:#60b22f;}</style></defs><g id="SUPERFICIE_TOTAL" data-name="SUPERFICIE TOTAL"><polygon class="cls-1" points="479.06 245.5 479.06 362.5 188.06 362.5 188.06 245.5 86.06 245.5 86.06 502.5 567.06 502.5 567.06 245.5 479.06 245.5"/><rect class="cls-1" x="188.06" y="19.5" width="291" height="343"/></g><g id="LIMPIEZA"><rect class="cls-2" x="188.06" y="19.5" width="291" height="343"/><polygon class="cls-2" points="479.06 245.5 479.06 362.5 188.06 362.5 188.06 245.5 86.06 245.5 86.06 502.5 567.06 502.5 567.06 245.5 479.06 245.5"/></g><g id="IMPERMEABILIZANTE"><polygon class="cls-3" points="479.06 246.5 479.06 363.5 188.06 363.5 188.06 246.5 86.06 246.5 86.06 503.5 567.06 503.5 567.06 246.5 479.06 246.5"/><rect class="cls-3" x="188.06" y="20.5" width="291" height="343"/><polygon class="cls-3" points="167.13 33.5 105.13 33.5 105.13 0.5 35.13 0.5 35.13 55.5 88.13 55.5 88.13 65.5 46.13 65.5 46.13 133.52 1.06 138.63 34.88 173.74 25.13 221.5 68.97 200.19 111.39 224.22 107.11 193.5 143.13 193.5 143.13 95.5 167.13 95.5 167.13 33.5"/></g></svg>