<svg xmlns="http://www.w3.org/2000/svg" viewBox="0 0 482 485"><defs><style>.cls-1{fill:#e52421;}.cls-1,.cls-2,.cls-3{stroke:#fff;stroke-miterlimit:10;}.cls-2{fill:#f39200;opacity:0.45;}.cls-3{fill:#60b22f;}</style></defs><g id="SUPERFICIE_TOTAL" data-name="SUPERFICIE TOTAL"><polygon class="cls-1" points="393.5 226.5 393.5 343.5 102.5 343.5 102.5 226.5 0.5 226.5 0.5 483.5 481.5 483.5 481.5 226.5 393.5 226.5"/><rect class="cls-1" x="102.5" y="0.5" width="291" height="343"/></g><g id="LIMPIEZA"><rect class="cls-2" x="102.5" y="0.5" width="291" height="343"/><polygon class="cls-2" points="393.5 226.5 393.5 343.5 102.5 343.5 102.5 226.5 0.5 226.5 0.5 483.5 481.5 483.5 481.5 226.5 393.5 226.5"/></g><g id="IMPERMEABILIZANTE"><polygon class="cls-3" points="393.5 227.5 393.5 344.5 102.5 344.5 102.5 227.5 0.5 227.5 0.5 484.5 481.5 484.5 481.5 227.5 393.5 227.5"/><rect class="cls-3" x="102.5" y="1.5" width="291" height="343"/></g></svg>